<svg xmlns="http://www.w3.org/2000/svg" width="178" height="184" viewBox="0 0 178 184">
  <path d="M 56.93 147.37 C 56.6 147.36 55.58 147.45 54.92 147.28 C 54.25 147.11 53.5 146.76 52.96 146.36 C 52.43 145.97 51.98 145.51 51.7 144.9 C 51.43 144.28 51.3 143.39 51.34 142.68 C 51.37 141.98 51.58 141.25 51.92 140.65 C 52.26 140.05 52.88 139.6 53.39 139.08 C 53.9 138.56 54.44 138.05 54.97 137.53 C 55.49 137.01 56.02 136.49 56.54 135.97 C 57.06 135.45 57.58 134.93 58.1 134.41 C 58.62 133.89 59.14 133.37 59.66 132.85 C 60.18 132.32 60.7 131.8 61.22 131.28 C 61.74 130.76 62.26 130.24 62.77 129.72 C 63.29 129.2 63.81 128.68 64.33 128.16 C 64.85 127.64 65.37 127.12 65.89 126.6 C 66.41 126.08 66.93 125.56 67.45 125.04 C 67.97 124.52 68.49 124 69.01 123.48 C 69.54 122.96 70.06 122.44 70.58 121.92 C 71.1 121.4 71.62 120.88 72.14 120.36 C 72.66 119.84 73.18 119.32 73.71 118.8 C 74.23 118.28 74.75 117.76 75.27 117.24 C 75.79 116.72 76.31 116.21 76.83 115.69 C 77.35 115.17 77.87 114.64 78.39 114.12 C 78.91 113.6 79.43 113.08 79.95 112.56 C 80.47 112.04 80.99 111.52 81.51 111 C 82.03 110.48 82.55 109.96 83.06 109.44 C 83.58 108.91 84.1 108.39 84.62 107.87 C 85.14 107.35 85.66 106.83 86.17 106.31 C 86.69 105.78 87.21 105.26 87.73 104.74 C 88.25 104.22 88.77 103.7 89.29 103.18 C 89.81 102.66 90.33 102.14 90.85 101.62 C 91.37 101.1 91.9 100.58 92.42 100.07 C 92.94 99.55 93.46 99.03 93.99 98.51 C 94.51 98 95.04 97.48 95.57 96.96 C 96.09 96.45 96.62 95.94 97.15 95.42 C 97.68 94.91 98.25 94.42 98.74 93.88 C 99.22 93.34 99.76 92.81 100.07 92.19 C 100.38 91.57 100.65 90.79 100.62 90.14 C 100.58 89.48 100.32 88.73 99.86 88.26 C 99.39 87.79 98.5 87.4 97.83 87.33 C 97.15 87.26 96.42 87.5 95.82 87.83 C 95.21 88.15 94.74 88.78 94.21 89.28 C 93.68 89.79 93.17 90.33 92.65 90.85 C 92.13 91.37 91.61 91.89 91.09 92.41 C 90.57 92.93 90.05 93.45 89.53 93.97 C 89.01 94.49 88.49 95.01 87.97 95.53 C 87.45 96.05 86.93 96.57 86.41 97.09 C 85.89 97.61 85.37 98.13 84.85 98.65 C 84.33 99.17 83.81 99.69 83.29 100.22 C 82.77 100.74 82.25 101.26 81.73 101.78 C 81.21 102.3 80.69 102.82 80.16 103.34 C 79.64 103.86 79.12 104.38 78.6 104.9 C 78.08 105.42 77.56 105.94 77.04 106.46 C 76.52 106.98 76 107.5 75.48 108.02 C 74.96 108.54 74.44 109.06 73.92 109.58 C 73.4 110.1 72.88 110.62 72.36 111.14 C 71.84 111.66 71.32 112.18 70.8 112.7 C 70.28 113.22 69.76 113.74 69.24 114.26 C 68.72 114.78 68.2 115.3 67.68 115.82 C 67.16 116.34 66.65 116.86 66.12 117.38 C 65.6 117.9 65.07 118.42 64.55 118.94 C 64.03 119.46 63.53 119.97 63 120.5 C 62.46 121.03 61.76 122 61.35 122.12 C 60.94 122.24 60.68 121.75 60.53 121.22 C 60.39 120.68 60.5 119.66 60.5 118.9 C 60.49 118.15 60.48 117.41 60.48 116.68 C 60.48 115.94 60.48 115.22 60.49 114.49 C 60.49 113.77 60.5 113.05 60.51 112.31 C 60.52 111.58 60.54 110.84 60.53 110.1 C 60.52 109.35 60.4 108.56 60.45 107.85 C 60.49 107.13 60.6 106.45 60.79 105.8 C 60.97 105.14 61.4 104.57 61.55 103.9 C 61.71 103.23 61.57 102.44 61.73 101.76 C 61.88 101.09 62.2 100.49 62.48 99.87 C 62.76 99.25 63.23 98.71 63.43 98.05 C 63.62 97.4 63.42 96.58 63.62 95.93 C 63.82 95.28 64.28 94.73 64.62 94.13 C 64.95 93.54 65.31 92.95 65.62 92.34 C 65.94 91.74 66.22 91.12 66.51 90.5 C 66.8 89.89 67 89.24 67.35 88.64 C 67.69 88.05 68.18 87.52 68.57 86.94 C 68.96 86.37 69.28 85.76 69.67 85.19 C 70.06 84.62 70.43 84.04 70.92 83.5 C 71.41 82.97 72.16 82.54 72.61 81.99 C 73.06 81.44 73.22 80.78 73.6 80.2 C 73.99 79.63 74.44 79.07 74.93 78.53 C 75.41 78 76 77.52 76.52 77 C 77.05 76.49 77.56 75.97 78.07 75.44 C 78.59 74.92 79.11 74.39 79.62 73.86 C 80.14 73.34 80.66 72.81 81.18 72.29 C 81.7 71.77 82.23 71.25 82.75 70.73 C 83.27 70.22 83.79 69.71 84.32 69.19 C 84.84 68.68 85.36 68.17 85.88 67.65 C 86.41 67.14 86.93 66.62 87.44 66.1 C 87.96 65.57 88.48 65.04 88.99 64.51 C 89.51 63.98 90.01 63.42 90.53 62.89 C 91.05 62.36 91.56 61.81 92.09 61.33 C 92.63 60.85 93.18 60.4 93.75 60 C 94.32 59.59 94.95 59.35 95.51 58.92 C 96.06 58.48 96.56 57.91 97.09 57.4 C 97.61 56.9 98.08 56.26 98.66 55.87 C 99.23 55.48 99.92 55.36 100.53 55.06 C 101.14 54.75 101.69 54.31 102.31 54.04 C 102.94 53.77 103.63 53.66 104.27 53.43 C 104.91 53.2 105.49 52.81 106.16 52.66 C 106.84 52.52 107.64 52.75 108.3 52.55 C 108.96 52.36 109.47 51.67 110.13 51.5 C 110.79 51.34 111.53 51.59 112.26 51.58 C 113 51.57 113.82 51.44 114.55 51.44 C 115.29 51.44 115.99 51.4 116.65 51.58 C 117.31 51.76 117.84 52.35 118.52 52.5 C 119.2 52.64 120.04 52.34 120.73 52.45 C 121.41 52.56 122 52.95 122.66 53.14 C 123.32 53.32 124.03 53.37 124.68 53.58 C 125.33 53.79 125.98 54 126.56 54.37 C 127.14 54.74 127.59 55.42 128.17 55.8 C 128.75 56.17 129.45 56.27 130.03 56.64 C 130.62 57.01 131.11 57.62 131.68 58.02 C 132.24 58.42 132.86 58.66 133.43 59.07 C 133.99 59.48 134.53 59.97 135.07 60.48 C 135.6 60.99 136.18 61.56 136.61 62.12 C 137.05 62.68 137.3 63.26 137.69 63.83 C 138.08 64.4 138.6 64.95 138.96 65.54 C 139.33 66.13 139.49 66.79 139.89 67.35 C 140.29 67.92 140.99 68.37 141.36 68.95 C 141.73 69.53 141.92 70.19 142.13 70.84 C 142.33 71.49 142.42 72.19 142.59 72.86 C 142.75 73.53 142.92 74.2 143.09 74.86 C 143.27 75.52 143.59 76.12 143.64 76.83 C 143.7 77.55 143.45 78.38 143.43 79.13 C 143.41 79.87 143.51 80.58 143.52 81.31 C 143.53 82.04 143.51 82.76 143.51 83.5 C 143.5 84.24 143.49 85 143.48 85.73 C 143.47 86.47 143.61 87.23 143.43 87.89 C 143.25 88.55 142.73 89.09 142.4 89.69 C 142.07 90.29 141.68 90.86 141.45 91.5 C 141.22 92.13 141.24 92.88 141.02 93.52 C 140.81 94.16 140.63 94.89 140.17 95.34 C 139.71 95.79 138.92 96 138.27 96.22 C 137.62 96.44 136.91 96.45 136.26 96.66 C 135.62 96.87 135.06 97.33 134.39 97.48 C 133.72 97.63 132.88 97.39 132.21 97.55 C 131.55 97.72 131.03 98.23 130.39 98.49 C 129.76 98.74 129.09 98.88 128.43 99.07 C 127.77 99.26 127.09 99.4 126.45 99.63 C 125.81 99.86 125.27 100.31 124.59 100.45 C 123.91 100.59 123.05 100.31 122.39 100.49 C 121.73 100.66 121.27 101.29 120.62 101.51 C 119.98 101.73 119.05 101.45 118.52 101.83 C 117.98 102.21 117.47 103.19 117.42 103.79 C 117.36 104.39 117.69 105.11 118.18 105.41 C 118.68 105.7 119.65 105.54 120.39 105.55 C 121.12 105.56 121.88 105.45 122.61 105.46 C 123.34 105.46 124.1 105.41 124.77 105.59 C 125.43 105.76 126.14 106.11 126.61 106.52 C 127.09 106.93 127.61 107.5 127.62 108.07 C 127.63 108.64 126.99 109.33 126.68 109.96 C 126.38 110.58 126.24 111.26 125.81 111.82 C 125.38 112.38 124.65 112.78 124.13 113.31 C 123.6 113.83 123.23 114.62 122.64 114.97 C 122.06 115.33 121.25 115.18 120.62 115.44 C 119.99 115.69 119.49 116.27 118.85 116.5 C 118.21 116.73 117.44 116.64 116.77 116.8 C 116.1 116.97 115.48 117.24 114.85 117.49 C 114.21 117.73 113.63 118.13 112.97 118.29 C 112.3 118.45 111.51 118.27 110.85 118.46 C 110.19 118.65 109.64 119.23 108.99 119.42 C 108.34 119.61 107.53 119.28 106.94 119.61 C 106.36 119.93 105.66 120.75 105.48 121.35 C 105.3 121.94 105.52 122.72 105.88 123.19 C 106.24 123.66 107.07 123.72 107.62 124.14 C 108.18 124.57 109.11 125.21 109.21 125.74 C 109.31 126.27 108.68 126.87 108.24 127.33 C 107.8 127.79 107.13 128.13 106.55 128.52 C 105.97 128.91 105.36 129.3 104.77 129.65 C 104.17 130 103.59 130.34 102.99 130.64 C 102.38 130.94 101.75 131.2 101.11 131.45 C 100.48 131.7 99.8 131.85 99.18 132.12 C 98.56 132.4 98.02 132.86 97.38 133.1 C 96.75 133.34 96.03 133.4 95.36 133.55 C 94.69 133.7 94 133.82 93.34 134 C 92.68 134.18 92.11 134.58 91.4 134.65 C 90.69 134.71 89.8 134.32 89.1 134.41 C 88.4 134.49 87.85 134.96 87.2 135.15 C 86.54 135.35 85.89 135.54 85.17 135.6 C 84.46 135.65 83.66 135.5 82.92 135.48 C 82.17 135.46 81.44 135.46 80.7 135.46 C 79.97 135.47 79.25 135.51 78.52 135.52 C 77.79 135.53 77.05 135.53 76.31 135.52 C 75.58 135.52 74.83 135.5 74.1 135.49 C 73.36 135.48 72.61 135.47 71.88 135.47 C 71.15 135.48 70.36 135.36 69.7 135.53 C 69.04 135.71 68.46 136.09 67.9 136.53 C 67.35 136.96 66.88 137.6 66.36 138.13 C 65.85 138.66 65.31 139.17 64.8 139.69 C 64.28 140.21 63.77 140.74 63.25 141.27 C 62.73 141.79 62.22 142.31 61.69 142.82 C 61.17 143.34 60.62 143.83 60.1 144.36 C 59.58 144.88 59.11 145.47 58.58 145.97 C 58.05 146.47 57.21 147.14 56.93 147.37 C 56.66 147.61 57.27 147.39 56.93 147.37 Z" fill="#e0e0e0"/>
</svg>
